<?xml version="1.0" encoding="UTF-8"?>
<svg xmlns="http://www.w3.org/2000/svg" id="Layer_2" data-name="Layer 2" viewBox="0 0 623.01 201.98">
  <defs>
    <style>
      .cls-1 {
        fill: #fff;
      }
    </style>
  </defs>
  <g id="Layer_3" data-name="Layer 3">
    <g>
      <path class="cls-1" d="m0,101.17l30.5-30.5V31.25h25.29v13.76L101.17,0l62.86,62.86-62.86,63.24-31.99-30.88-37.57,37.57L0,101.17Z"></path>
      <path class="cls-1" d="m44.26,145.07l25.66-25.67,30.51,30.87,75.88-74.76,25.29,25.66-100.8,100.81-56.54-56.91Z"></path>
      <path class="cls-1" d="m245.44,102.25V37.66h13.02v64.59h-13.02Z"></path>
      <path class="cls-1" d="m267.77,53.59h11.94v4.98h.18c3.17-4.43,7.06-6.24,12.3-6.24,5.7,0,9.85,2.81,11.21,7.78h.18c1.9-5.16,6.42-7.78,12.3-7.78,8.24,0,12.12,5.16,12.12,14.56v35.38h-12.48v-34.02c0-4.07-1.36-6.34-4.89-6.34-3.99,0-6.52,2.71-6.52,8.32v32.03h-12.48v-34.02c0-4.07-1.36-6.34-4.89-6.34-3.99,0-6.52,2.71-6.52,8.32v32.03h-12.48v-48.64h.02Z"></path>
      <path class="cls-1" d="m336.35,53.59h11.94v4.98h.18c3.17-4.43,7.06-6.24,12.3-6.24,5.7,0,9.85,2.81,11.21,7.78h.18c1.9-5.16,6.42-7.78,12.3-7.78,8.24,0,12.12,5.16,12.12,14.56v35.38h-12.48v-34.02c0-4.07-1.36-6.34-4.89-6.34-3.99,0-6.52,2.71-6.52,8.32v32.03h-12.48v-34.02c0-4.07-1.36-6.34-4.89-6.34-3.99,0-6.52,2.71-6.52,8.32v32.03h-12.48v-48.64h.02Z"></path>
      <path class="cls-1" d="m422.46,52.32c15.02-.28,19.18,8.68,19.18,25.6s-4.89,25.6-19.18,25.6c-15.02.28-19.18-8.68-19.18-25.6.02-16.65,4.9-25.6,19.18-25.6Zm0,42.7c5.07,0,6.7-4.97,6.7-17.09s-1.63-17.09-6.7-17.09c-6.14,0-6.7,7.14-6.7,17.09.02,9.95.56,17.09,6.7,17.09Z"></path>
      <path class="cls-1" d="m486.51,37.68v10.67h-14.12v53.9h-13.02v-53.9h-14.12v-10.67h41.26Z"></path>
      <path class="cls-1" d="m485.06,53.59h11.94v6.52h.18c2.53-4.71,6.06-7.78,11.23-7.78.72,0,1.54.1,2.25.18v11.94c-1.27-.1-2.63-.18-3.89-.18-4.35,0-9.23,2.25-9.23,8.77v29.22h-12.48v-48.68Z"></path>
      <path class="cls-1" d="m540.16,96.55h-.18c-2.63,4.79-7.14,6.96-12.39,6.96-7.78,0-12.39-4.25-12.39-13.84v-36.09h12.48v33.56c0,4.89,1.63,6.78,5.34,6.78,4.25,0,6.6-2.63,6.6-8.06v-32.29h12.48v48.66h-11.94v-5.69h-.02Z"></path>
      <path class="cls-1" d="m569.55,86.34v1.63c0,4.25,2.25,7.06,6.52,7.06,3.79,0,6.34-1.9,6.34-5.78,0-3.17-2.08-4.61-4.53-5.52l-8.77-3.17c-6.88-2.45-10.41-6.7-10.41-13.56,0-8.06,5.07-14.66,17.91-14.66,11.31,0,16.65,5.07,16.65,13.84v1.99h-11.23c0-4.89-1.45-7.32-5.52-7.32-3.17,0-5.88,1.81-5.88,5.24,0,2.35,1.26,4.35,5.42,5.7l7.5,2.53c7.88,2.63,10.77,6.6,10.77,13.92,0,10.23-7.6,15.29-18.09,15.29-14.02,0-17.91-6.14-17.91-15.47v-1.72h11.23v-.02Z"></path>
      <path class="cls-1" d="m603.29,39.66h12.48v13.92h7.24v8.5h-7.24v26.32c0,3.81.82,5.34,4.43,5.34,1,0,1.99-.1,2.81-.18v8.69c-2.71.28-5.25.54-8.14.54-9.77,0-11.58-2.99-11.58-12.84v-27.86h-6.34v-8.5h6.34v-13.94Z"></path>
      <path class="cls-1" d="m290.62,154.62v.87c0,4.23,1.85,6.36,5.69,6.36,3.5,0,5.25-2.48,5.25-5.05,0-3.64-1.85-5.25-4.95-6.16l-3.79-1.31c-5.05-1.94-7.24-4.56-7.24-9.51,0-6.31,4.26-9.8,10.78-9.8,8.89,0,9.8,5.54,9.8,9.12v.78h-5.54v-.74c0-3.15-1.41-5-4.85-5-2.39,0-4.66,1.31-4.66,5,0,2.96,1.5,4.46,5.2,5.87l3.74,1.36c4.9,1.75,7.04,4.41,7.04,9.17,0,7.39-4.46,10.44-11.45,10.44-8.59,0-10.54-5.74-10.54-10.59v-.82h5.52v.02Z"></path>
      <path class="cls-1" d="m340.13,152.92v.74c0,6.26-2.52,12.39-10.69,12.39-8.74,0-11.45-5.64-11.45-18.01s2.71-18.01,11.5-18.01c9.85,0,10.44,7.29,10.44,10.88v.64h-5.54v-.59c0-3.2-.96-6.9-4.95-6.75-4.08,0-5.91,2.52-5.91,13.69s1.85,13.99,5.91,13.99c4.61,0,5.15-5.15,5.15-8.35v-.59h5.54v-.03Z"></path>
      <path class="cls-1" d="m351.27,130.68h5.54v13.89h10.2v-13.89h5.54v34.66h-5.54v-16.11h-10.2v16.11h-5.54v-34.66Z"></path>
      <path class="cls-1" d="m382.97,130.68h5.59l4.56,26.94h.1l4.56-26.94h5.83l4.66,27.09h.1l4.51-27.09h5.49l-6.9,34.66h-6.41l-4.46-26.11h-.1l-4.41,26.11h-6.41l-6.72-34.66Z"></path>
      <path class="cls-1" d="m428.78,130.68h18.74v4.66h-13.2v9.61h12.43v4.66h-12.43v11.06h13.59v4.66h-19.12v-34.64h-.02Z"></path>
      <path class="cls-1" d="m459.16,130.68h5.54v34.66h-5.54v-34.66Z"></path>
      <path class="cls-1" d="m475.47,160.98l14.51-25.64h-13.64v-4.66h19.71v4.66l-14.51,25.34h14.66v4.66h-20.73v-4.36h.02Z"></path>
      <path class="cls-1" d="m530.89,130.68h7.09l9.13,34.66h-5.78l-2.14-8.5h-10.15l-2.24,8.5h-5.78l9.87-34.66Zm7.37,21.75l-3.97-17.09h-.1l-4.13,17.09h8.2Z"></path>
      <path class="cls-1" d="m573.93,161.32h-.1c-1.5,3.2-3.5,4.71-7.57,4.71-7.57,0-10.29-5.64-10.29-18.01s3.5-18.01,11.5-18.01c8.69,0,10.15,6.85,10.15,10v.64h-5.25v-.82c0-2.57-1.06-5.64-4.85-5.64s-6.01,2.61-6.01,13.69,1.85,13.99,5.59,13.99c4.22.05,5.78-3.01,5.78-10.59h-5.82v-4.17h11.06v18.25h-4.18v-4.05h-.02Z"></path>
    </g>
  </g>
</svg>
