<?xml version="1.0" encoding="UTF-8"?>
<svg xmlns="http://www.w3.org/2000/svg" width="16.76" height="16.756" viewBox="0 0 16.76 16.756">
  <path id="Icon_awesome-instagram" data-name="Icon awesome-instagram" d="M8.377,6.32a4.3,4.3,0,1,0,4.3,4.3A4.289,4.289,0,0,0,8.377,6.32Zm0,7.089a2.793,2.793,0,1,1,2.793-2.793,2.8,2.8,0,0,1-2.793,2.793Zm5.474-7.265a1,1,0,1,1-1-1A1,1,0,0,1,13.851,6.144ZM16.7,7.161A4.959,4.959,0,0,0,15.342,3.65,4.992,4.992,0,0,0,11.832,2.3c-1.383-.079-5.53-.079-6.913,0a4.984,4.984,0,0,0-3.511,1.35A4.975,4.975,0,0,0,.054,7.157c-.079,1.383-.079,5.53,0,6.913a4.959,4.959,0,0,0,1.354,3.511,5,5,0,0,0,3.511,1.354c1.383.079,5.53.079,6.913,0a4.959,4.959,0,0,0,3.511-1.354A4.992,4.992,0,0,0,16.7,14.071c.079-1.383.079-5.526,0-6.91Zm-1.787,8.394a2.828,2.828,0,0,1-1.593,1.593c-1.1.437-3.72.337-4.939.337s-3.84.1-4.939-.337a2.828,2.828,0,0,1-1.593-1.593c-.437-1.1-.337-3.72-.337-4.939s-.1-3.84.337-4.939A2.828,2.828,0,0,1,3.437,4.084c1.1-.437,3.72-.337,4.939-.337s3.84-.1,4.939.337a2.828,2.828,0,0,1,1.593,1.593c.437,1.1.337,3.72.337,4.939S15.346,14.456,14.909,15.555Z" transform="translate(0.005 -2.238)" fill="#fff"></path>
</svg>
