<?xml version="1.0" encoding="UTF-8"?>
<svg xmlns="http://www.w3.org/2000/svg" width="16.751" height="16.75" viewBox="0 0 16.751 16.75">
  <path id="Icon_awesome-linkedin-in" data-name="Icon awesome-linkedin-in" d="M3.749,16.751H.277V5.568H3.749ZM2.011,4.042a2.021,2.021,0,1,1,2.011-2.03A2.028,2.028,0,0,1,2.011,4.042ZM16.747,16.751H13.282V11.307c0-1.3-.026-2.961-1.806-2.961-1.806,0-2.082,1.41-2.082,2.868v5.537H5.925V5.568H9.256V7.093H9.3A3.649,3.649,0,0,1,12.59,5.287c3.515,0,4.161,2.314,4.161,5.321v6.143Z" transform="translate(0 0)" fill="#fff"></path>
</svg>
